<?xml version="1.0" encoding="UTF-8"?>
<svg version="1.1" viewBox="0 0 1024 1024" width="1280" height="1280" xmlns="http://www.w3.org/2000/svg">
<path transform="translate(104)" d="m0 0h22l15 6 11 8 8 10 5 10 3 12v13l-3 12-7 14-4 4 2 6 4 2 44 44v2l4 2 15 15 4-1 14-12 14-11 18-13 20-13 22-12 16-8 22-10 37-13 27-7 27-5 32-4 17-1h40l25 2 31 4 25 5 23 6 34 12 21 9 16 8 21 11 24 15 15 11 14 11 13 11 5 4 3-1 2-3h2v-2l8-7 12-12 6-7 8-7 16-17 12-11-2-4-7-12-4-12-1-5v-12l3-13 7-13 9-10 12-7 10-4h24l12 5 11 6 11 10 7 10 5 12 2 13h8l13 4 11 7 11 11 6 10 6 13 1 4v21l-5 12-6 10-4 5-11 8-11 5-12 2-16-1-13-5-11-7h-4l-13 13-6 7-8 7-16 17-8 7-9 10-8 7-2 4 10 15 15 25 12 23 12 27 10 28 8 30 6 25 9 4 16 8 13 9 9 10 4 11-2 11-8 11-11 9-16 8-7 3-3 39-4 27-6 28-8 29-7 20-11 26-13 27-16 27-11 16-16 21-12 14-5 5 1 4 5 5 1 3 4 2 88 88v2h2l2 3 4-2 11-7 11-4 5-1h15l10 2 14 7 9 8 8 12 5 13v22l-5 13-9 14-10 10-12 7-14 4-6 1-2 12-5 12-10 13-10 8-14 7-9 3h-20l-19-8-12-11-7-11-4-11-1-6v-11l3-13 7-14 4-5-2-4-105-105-5 2-17 11-15 9-27 14-20 9-3 4-10 28-8 16-10 16-11 13-11 12-14 11-18 12-17 8-18 6-16 4-24 3h-10l-19-2-21-5-18-6-16-8-14-9-13-10-20-20-12-17-9-15-7-16-7-21-5-5-16-7-31-16-19-12-12-8-5-3-8 7-34 34-7 8-13 12-3 4h-2l-2 4-7 7-8 7-14 15-10 9-2 4 7 10 5 12 2 8v14l-3 12-5 10-7 9-11 8-14 6-3 1h-19l-16-6-9-5-10-9-7-8-6-13-3-15-12-2-12-5-8-6-11-11-8-14-4-11v-23l9-19 9-10 13-8 9-3 7-1h10l14 3 14 7 4 4 4-1 10-10 7-8 12-11 8-8 1-2h2v-2l8-7 11-11 1-2h2l2-4 8-7 9-9 7-8 13-12 3-5-11-12-11-14-12-16-10-15-14-24-11-21-13-31-8-22-8-29-7-35-4-31-2-27-18-8-11-7-10-9-5-8-2-6 1-10 5-9 9-9 14-9 18-8 6-3 13-51 10-28 14-32 11-21 12-20 10-15 2-4-73-73-4 1-11 7-10 4-5 1h-20l-10-3-12-7-10-10-8-16-2-5v-23l8-18 7-10 8-8 11-7 11-4 9-1 5-18 5-10 8-10 11-9 15-7z" fill="#070305"/>
<path transform="translate(464,407)" d="m0 0h84l41 1 58 3 54 5 49 7 39 8 16 5 12 6 5 5 1 10v42l-1 17-5 28-9 31-6 18-5 12-8 15-4 8-7 12-16 24h-2l-2 4-11 14-7 7-7 8-8 8-11 9-9 8-4 3h-2v2l-16 10-5 4-11 6-10 6-19 9-15 6-27 9-28 6-24 3-13 1h-35l-28-3-27-5-19-5-24-9-11-5-21-10-15-9-22-15-11-9-10-9-8-7-11-11-7-8-11-13-13-18-14-22-10-21-5-10-5-13-8-26-6-26-4-27v-55l2-6 5-2v-2l16-7 14-4 32-6 38-6 44-5 43-3 35-2z" fill="#FAFBFC"/>
<path transform="translate(504,162)" d="m0 0h18l26 2 25 4 31 7 21 7 21 9 16 8 13 7 11 7 17 12 10 8 13 12 8 7 10 10v2h2l8 10 10 13 10 15 10 17 12 24 2 5-6-1-22-7-31-7-27-5-37-5-29-3-43-3-23-1-50-1h-35l-43 1-44 2-46 4-44 6-37 7-25 6-18 6-6 3h-2l2-5 8-16 9-17 14-21 9-12 11-13 12-13 7-7 8-7 13-11 20-14 21-13 22-11 19-8 24-8 26-6 23-4z" fill="#FD9602"/>
<path transform="translate(508,63)" d="m0 0h18l30 2 27 4 42 9 26 8 36 15 23 11 27 16 12 8 18 13 13 11 11 9-2 4-37 37-7 8-4 4h-2v2l-6 5-1 2-5-2-15-12-15-11-21-13-25-13-23-9-30-10-22-5-27-4-14-1h-44l-28 3-25 5-20 6-30 11-23 11-17 10-16 10-13 10-14 11-7 6-4-1-59-59 1-5 11-9 15-12 18-13 22-14 21-12 24-11 29-12 26-8 40-9 26-4z" fill="#52A9E4"/>
<path transform="translate(475,367)" d="m0 0h68l74 2 40 2 53 4 42 4 41 5 40 6 42 9 32 8 16 5 17 7 17 9 10 9 2 3v7l-7 8-8 6-19 10-30 10-44 11-22 5h-3l-1-35-2-19-4-6-5-4-14-7-24-8-22-5-39-6-37-4-35-3-50-3-27-1h-120l-48 2-56 4-48 5-28 4-26 5-24 7-19 8-7 5-4 6-1 4-1 16-1 35h-7l-35-8-35-9-27-9-21-11-10-9-3-4v-6l6-8 10-7 15-8 20-8 64-16 34-6 35-5 54-6 44-4 67-4z" fill="#FD9602"/>
<path transform="translate(364,450)" d="m0 0h26l18 4 18 8 16 11 12 11 10 13 8 14 5 13 4 21v21l-3 17-2 9-4 9-6 12-9 12-11 12-17 12-13 7-21 6-6 1h-30l-18-4-13-5-15-9-14-11-9-10-10-15-8-18-4-15-1-7v-19l2-16 5-18 6-11 9-14 8-10 11-9 11-8 14-7 17-5z" fill="#020102"/>
<path transform="translate(642,450)" d="m0 0h23l20 4 14 5 15 9 11 9 11 11 9 13 8 16 4 13 2 13v26l-3 17-6 17-6 11-10 13-7 8-13 10-12 7-8 4-11 4-15 3h-30l-18-4-11-4-16-9-13-10-9-9-11-16-7-13-6-21-1-7v-27l4-18 5-14 9-15 7-9 8-9 14-11 14-8 17-6z" fill="#020102"/>
<path transform="translate(279,700)" d="m0 0 4 1 18 18 11 9 8 6 7 5-6 7-183 183v5l10 12 5 10 2 7v16l-3 11-8 10-7 6-8 4-3 1h-21l-11-4-11-8-9-11-6-14-2-15-1-2-16-2-10-4-11-8-8-9-6-11-2-8v-12l2-10 6-10 8-8 9-5 8-2h12l10 2 14 7 10 9 4-2 8-7 174-174z" fill="#FCFCFC"/>
<path transform="translate(743,703)" d="m0 0 5 1 12 13 7 6 6 7 68 68 2 1v2l4 2 7 8 7 7 6 5v2l4 2 7 8 7 7 2 1v2l4 2 6 7 5 5 5 4 22 22 4 2 12-11 9-5 8-2h19l10 4 6 4 5 4 7 11 3 11v10l-3 13-7 11-10 10-10 6-11 3-14 2-2 17-4 9-7 11-10 9-12 6-3 1h-21l-8-3-9-6-7-8-5-11-1-4v-14l2-9 5-10 11-13-2-5-185-185 1-3 14-10 13-11 14-13z" fill="#FBFBFC"/>
<path transform="translate(109,12)" d="m0 0h11l9 2 10 5 5 4 7 10 3 7 1 5v15l-3 11-7 11-8 9 2 4 1 3 3 1v2l4 2 8 8 7 8 9 8 7 8 79 79 2 1v2l4 2 9 9 7 8 8 7-1 3-8 7-9 11-13 16-6 8-1 3-4-1v-2h-2l-7-8-46-46v-2l-4-2-5-6-7-6-5-6-7-6v-2l-4-2-63-63-4-1-11 9h-2v2l-12 5-4 1h-20l-8-3-9-6-7-8-5-11-1-5v-13l4-13 7-10 9-9 10-6 11-3 13-1 2-17 4-10 7-11 7-7 10-6 7-3z" fill="#FBFBFC"/>
<path transform="translate(901,12)" d="m0 0h12l10 2 11 6 10 9 6 9 4 9 4 19 15 2 11 4 11 7 9 10 6 12 2 9v11l-4 13-7 9-8 7-9 4-6 1h-13l-12-3-11-7-9-8-5 2-145 145-2 4h-2l-7-10v-2h-2l-6-9-9-10-7-8-7-7 1-4 141-141 3-4-2-4-8-10-6-12-2-6v-16l3-9 5-10 12-10z" fill="#FBFCFC"/>
<path transform="translate(920,491)" d="m0 0 5 1v19l-4 37-4 19-7 27-11 31-11 26-8 16-12 22-10 15-11 16-10 13-9 11-9 12h-2v-2l-4-2-59-59 6-8 10-12 14-20 9-15 12-23 12-29 8-27 5-24 3-22 2-2 51-11 28-7z" fill="#3A7CBA"/>
<path transform="translate(103,492)" d="m0 0 7 1 19 5 65 14 2 5 4 27 6 24 6 18 10 24 11 23 13 21 12 17 13 16-1 5-61 61-4-1-9-12-9-10-14-20-14-22-6-10-8-16-10-21-9-23-10-30-7-27-3-15-3-24-1-24z" fill="#3A7CBA"/>
<path transform="translate(362,842)" d="m0 0 3 2 5 9 11 14 6 7 11 9 12 9 15 8 23 10 18 5 16 3 25 2h14l24-2 24-5 17-6 10-4 19-10 13-9 10-9 6-5 9-11 6-9 4-8h2l-1 11-3 17-5 16-5 11-8 16-7 11-9 11-9 10-11 10-13 9-18 10-17 7-19 5-15 2h-24l-20-3-17-5-16-7-17-10-13-10-15-14-11-14-6-9-6-10-9-20-6-20-3-17z" fill="#F9FAFB"/>
<path transform="translate(482,323)" d="m0 0h75l32 1 49 3 39 4 31 4 25 4 27 6 27 9 16 9 5 6v2l-7 1-37-5-40-4-74-5-49-2-31-1h-116l-63 2-36 2-51 4-42 4-39 4v-4l8-7 21-9 21-6 34-7 24-4 44-5 33-3 40-2z" fill="#A01702"/>
<path transform="translate(848,237)" d="m0 0 4 1 10 16 9 14 14 27 7 15 9 24 9 25 5 17 4 16v3l-10-2-28-7-35-7-23-4-3-3-7-19-14-32-12-22 1-3 8-7z" fill="#52A9E4"/>
<path transform="translate(175,239)" d="m0 0 5 3 5 4v2l4 2v2l4 2v2l4 2v2l4 2v2l4 2 36 36-5 10-8 14-10 23-9 23-2 2-48 9-36 8-11 3h-3l1-7 8-29 11-33 11-25 14-28 12-19z" fill="#52A8E3"/>
<path transform="translate(336,749)" d="m0 0 7 1 17 10 1 4-6 19-4 18-2 11-1 11v31l-10-4-26-13-15-9-17-11-6-4 2-4z" fill="#3A7CBA"/>
<path transform="translate(686,750)" d="m0 0 4 2 61 61v2l-20 12-17 10-23 12-10 5h-2v-32l-3-23-4-16-7-21z" fill="#3A7CBA"/>
<path transform="translate(510,644)" d="m0 0 14 2 8 4 9 8 5 8 2 6v19l-4 11-8 9-14 7-4 1h-13l-14-5-10-9-5-10-2-7v-12l3-10 5-8 7-7 9-5z" fill="#030203"/>
<path transform="translate(589,843)" d="m0 0 5 1 12 38-1 4-16 8-24 8-24 5-15 2h-7l-1-1v-54l34-3 27-5z" fill="#F4F8FB"/>
<path transform="translate(430,842)" d="m0 0 7 1 24 6 24 3 19 2 1 2v52h-13l-22-4-19-5-16-6-15-8-2-2v-6l9-27z" fill="#F6F9FA"/>
<path transform="translate(446,793)" d="m0 0 36 5 21 2 2 2v43h-12l-23-3-22-5-13-4-1-1 1-7 10-31z" fill="#F4F7FA"/>
<path transform="translate(569,795)" d="m0 0h9l11 33v6l-22 6-25 4-12 1h-11l-1-1v-44l29-2z" fill="#F3F7FA"/>
<path transform="translate(648,770)" d="m0 0h6v12l-4 10-8 10-5 5-9 8h-2v2l-14 7-9 5h-2l-4-9-6-21-1-8 8-3 19-6 21-7z" fill="#F5F8FB"/>
<path transform="translate(217,341)" d="m0 0 3 1-3 10-8 20-2 2-48 9-36 8-8 1 3-2 4-1-3-1-1-5 2-6 1-4 4-1 2-4 4-3 17-2h8l21-4 13-3 8-3h3l1-4 6-4h5l1-2 3-1z" fill="#3A7CBA"/>
<path transform="translate(660,793)" d="m0 0h2v17l-5 19-8 15-8 11-9 10-9 8h-2v2h-2v2l-4-2-6-20-4-12v-6l21-10 10-7 9-7 9-11 2-4h2v-3h2z" fill="#F3F7FA"/>
<path transform="translate(374,769)" d="m0 0 5 1 14 6 39 13 2 3-10 33-1 2-7-2-10-5-12-9-10-9-7-11-4-10v-11z" fill="#F4F8FA"/>
<path transform="translate(365,794)" d="m0 0 4 2 6 9 11 12 15 10 14 7 4 3-3 11-6 17-2 9-4-1-13-12-9-11-10-17-5-14-2-12z" fill="#F4F8FB"/>
<path transform="translate(908,363)" d="m0 0h3l4 13 4 16v3l-10-2-28-7-35-7-23-4v-1h20l6-1h12l8 3 18 1-1-3 4-3 7-1 2-2v-4l4 1h4z" fill="#3A7CBA"/>
<path transform="translate(215,350)" d="m0 0 1 4-7 18-1 1h-5l1-5 4-2 6-15z" fill="#4896D2"/>
<path transform="translate(220,282)" d="m0 0 7 6 12 12-1 2-5-1-2-1-3-8-8-8z" fill="#3A7CBA"/>
<path transform="translate(208,366)" d="m0 0h1v6l-1 1h-5l1-5z" fill="#50A5E0"/>
</svg>
